<svg width="1792" height="1792" viewBox="0 0 1792 1792" xmlns="http://www.w3.org/2000/svg"><path d="M 288 128 C 226.66667 128 174 150 130 194 C 86 238 64 290.66667 64 352 L 64 1312 C 64 1373.3333 86 1426 130 1470 C 174 1514 226.66667 1536 288 1536 L 1504 1536 C 1565.3333 1536 1618 1514 1662 1470 C 1706 1426 1728 1373.3333 1728 1312 L 1728 608 C 1728 546.66667 1706 494 1662 450 C 1618 406 1565.3333 384 1504 384 L 832 384 L 832 352 C 832 290.66667 810 238 766 194 C 722 150 669.33333 128 608 128 L 288 128 z M 846.9375 551.21875 L 955.09375 551.21875 C 970.1117 551.21875 982.86241 556.48741 993.375 567 C 1003.8876 577.51258 1009.1563 590.26328 1009.1562 605.28125 L 1009.1562 839.5625 L 1243.4375 839.5625 C 1258.4554 839.5625 1271.2061 844.83116 1281.7188 855.34375 C 1292.2314 865.85633 1297.5 878.60703 1297.5 893.625 L 1297.5 1001.75 C 1297.5 1016.7679 1292.2314 1029.5499 1281.7188 1040.0625 C 1271.2061 1050.5751 1258.4554 1055.8125 1243.4375 1055.8125 L 1009.1562 1055.8125 L 1009.1562 1290.0938 C 1009.1562 1305.1118 1003.8876 1317.8938 993.375 1328.4062 C 982.86241 1338.9189 970.1117 1344.1562 955.09375 1344.1562 L 846.9375 1344.1562 C 831.91952 1344.1562 819.16884 1338.9189 808.65625 1328.4062 C 798.14366 1317.8938 792.875 1305.1117 792.875 1290.0938 L 792.875 1055.8125 L 558.59375 1055.8125 C 543.57578 1055.8125 530.82509 1050.5751 520.3125 1040.0625 C 509.79991 1029.5499 504.53125 1016.7679 504.53125 1001.75 L 504.53125 893.625 C 504.53125 878.60703 509.79991 865.85633 520.3125 855.34375 C 530.82509 844.83116 543.57578 839.5625 558.59375 839.5625 L 792.875 839.5625 L 792.875 605.28125 C 792.875 590.26328 798.14366 577.51258 808.65625 567 C 819.16884 556.48741 831.91952 551.21875 846.9375 551.21875 z "/></svg>
